<svg xmlns="http://www.w3.org/2000/svg" width="91" height="92" viewBox="0 0 91 92" version="1.1">
	<path d="M 55 17 L 55 21 59.066 21 C 65.581 21, 67 22.266, 67 28.077 L 67 33.084 74.750 32.792 L 82.500 32.500 82.786 22.750 L 83.072 13 69.036 13 L 55 13 55 17 M 17.418 20.969 C 16.274 21.432, 14.136 23.238, 12.668 24.982 L 10 28.153 10 49.677 L 10 71.200 13.400 74.600 L 16.800 78 38.435 78 C 57.136 78, 60.423 77.769, 62.672 76.296 C 66.937 73.501, 68 69.359, 68 55.532 L 68 43 54 43 L 40 43 40 47.500 L 40 52 46 52 L 52 52 52 57.453 C 52 67.600, 49.339 70, 38.088 70 C 32.704 70, 30.715 69.564, 28.635 67.927 L 26 65.855 26 49.602 C 26 33.906, 26.079 33.274, 28.314 31.174 C 30.076 29.519, 31.867 29, 35.814 29 L 41 29 41 24.500 L 41 20 30.250 20.063 C 24.337 20.098, 18.563 20.506, 17.418 20.969" stroke="none" fill="#3c93cf" fill-rule="evenodd"/>
</svg>